<svg xmlns="http://www.w3.org/2000/svg" viewBox="0 0 64 44">
  <rect width="64" height="14.67" y="0" fill="#FCD116"/>
  <rect width="64" height="14.67" y="14.67" fill="#003893"/>
  <rect width="64" height="14.66" y="29.34" fill="#CF2228"/>
  <g fill="#fff">
    <polygon points="32,18 32.5,19.5 34,19.5 32.75,20.5 33.25,22 32,21 30.75,22 31.25,20.5 30,19.5 31.5,19.5"/>
    <polygon points="37,19 37.5,20.5 39,20.5 37.75,21.5 38.25,23 37,22 35.75,23 36.25,21.5 35,20.5 36.5,20.5"/>
    <polygon points="41,22 41.5,23.5 43,23.5 41.75,24.5 42.25,26 41,25 39.75,26 40.25,24.5 39,23.5 40.5,23.5"/>
    <polygon points="43,27 43.5,28.5 45,28.5 43.75,29.5 44.25,31 43,30 41.75,31 42.25,29.5 41,28.5 42.5,28.5"/>
    <polygon points="27,19 27.5,20.5 29,20.5 27.75,21.5 28.25,23 27,22 25.75,23 26.25,21.5 25,20.5 26.5,20.5"/>
    <polygon points="23,22 23.5,23.5 25,23.5 23.75,24.5 24.25,26 23,25 21.75,26 22.25,24.5 21,23.5 22.5,23.5"/>
    <polygon points="21,27 21.5,28.5 23,28.5 21.75,29.5 22.25,31 21,30 19.75,31 20.25,29.5 19,28.5 20.5,28.5"/>
  </g>
</svg>
